<svg width="368" height="298" viewBox="0 0 368 298" fill="none" xmlns="http://www.w3.org/2000/svg">
<path d="M279.06 53.9185C254.734 29.5955 221.124 14.5483 183.997 14.5483V5.3465C183.997 3.48852 182.473 1.96194 180.616 2.00072C142.574 2.86097 108.087 18.1796 82.4386 42.6683C81.0953 43.9481 81.0953 46.0987 82.4068 47.4173L88.9186 53.9361C64.5921 78.2697 49.5484 111.879 49.5484 149.003H40.3431C38.4816 149.003 36.9586 150.526 37.0009 152.384C37.8611 190.426 53.1762 224.913 77.6649 250.561C78.9483 251.905 81.0989 251.905 82.4139 250.593L88.9362 244.085C113.27 268.411 146.879 283.459 183.997 283.459V292.66C183.997 294.518 185.523 296.041 187.381 295.999C225.426 295.142 259.909 279.824 285.558 255.339C286.905 254.055 286.901 251.905 285.59 250.59L279.078 244.067C303.405 219.734 318.448 186.128 318.448 149.007H327.657C329.515 149.007 331.042 147.48 330.999 145.622C330.139 107.581 314.824 73.0976 290.332 47.442C289.052 46.0987 286.901 46.0987 285.583 47.4138L279.06 53.922V53.9185Z" fill="#FF788F"/>
<mask id="mask0_9155_2201" style="mask-type:alpha" maskUnits="userSpaceOnUse" x="37" y="2" width="294" height="294">
<path d="M279.06 53.9185C254.734 29.5955 221.124 14.5483 183.997 14.5483V5.3465C183.997 3.48852 182.473 1.96194 180.616 2.00072C142.574 2.86097 108.087 18.1796 82.4386 42.6683C81.0953 43.9481 81.0953 46.0987 82.4068 47.4173L88.9186 53.9361C64.5921 78.2697 49.5484 111.879 49.5484 149.003H40.3431C38.4816 149.003 36.9586 150.526 37.0009 152.384C37.8611 190.426 53.1762 224.913 77.6649 250.561C78.9483 251.905 81.0989 251.905 82.4139 250.593L88.9362 244.085C113.27 268.411 146.879 283.459 183.997 283.459V292.66C183.997 294.518 185.523 296.041 187.381 295.999C225.426 295.142 259.909 279.824 285.558 255.339C286.905 254.055 286.901 251.905 285.59 250.59L279.078 244.067C303.405 219.734 318.448 186.128 318.448 149.007H327.657C329.515 149.007 331.042 147.48 330.999 145.622C330.139 107.581 314.824 73.0976 290.332 47.442C289.052 46.0987 286.901 46.0987 285.583 47.4138L279.06 53.922V53.9185Z" fill="#6EDBFF"/>
</mask>
<g mask="url(#mask0_9155_2201)">
<path d="M125.292 56.8203L153.649 84.4045" stroke="black" stroke-width="1.2" stroke-linecap="round" stroke-linejoin="round"/>
<path d="M143.266 124.406C143.266 124.406 194.274 89.2875 216.693 69.6147C239.109 49.942 253.006 28.8555 253.006 28.8555C253.006 28.8555 275.063 46.3318 278.035 49.6353C281.007 52.9387 284.793 42.9543 289.5 43.9591C294.21 44.9639 315.43 70.616 315.43 70.616C315.43 70.616 288.245 108.964 243.184 130.607C198.12 152.251 162.036 154.218 162.036 154.218L143.266 124.409V124.406Z" fill="black" stroke="black" stroke-width="1.2" stroke-linecap="round" stroke-linejoin="round"/>
<path d="M116.471 136.012C116.471 136.012 125.849 132.624 131.867 130.001C138.644 127.047 143.266 124.402 143.266 124.402C143.266 124.402 145.903 128.058 147.049 132.321C148.198 136.583 147.049 138.142 147.049 138.142L121.883 147.65L116.471 136.009V136.012Z" fill="white" stroke="black" stroke-width="1.2" stroke-linecap="round" stroke-linejoin="round"/>
<path d="M81.7127 152.082C53.5891 170.465 52.4397 193.942 55.6445 194.671C58.9867 195.433 61.6732 190.74 65.9357 185.329C70.1981 179.917 66.8276 188.583 66.8276 188.583C66.8276 188.583 59.2688 201.268 64.1799 202.417C69.0911 203.566 76.2057 193.427 76.2057 193.427L77.9015 194.301C77.9015 194.301 72.3734 201.254 73.8471 203.76C76.597 208.446 86.0773 198.525 86.0773 198.525L87.8049 199.417C87.8049 199.417 85.9962 203.154 87.6004 204.275C89.9167 205.897 93.608 202.41 93.608 202.41L121.732 146.875L81.7197 152.082H81.7127Z" fill="#FF788F"/>
<path d="M73.8823 157.888C64.0847 171.61 58.8739 182.846 58.063 187.94C57.2521 193.035 58.063 194.279 58.063 194.279C58.063 194.279 56.4518 195.372 55.648 194.667C54.8442 193.962 53.233 193.751 54.6644 187.835C56.0958 181.915 61.2572 170.679 65.8616 165.814C70.466 160.949 73.8859 157.885 73.8859 157.885L73.8823 157.888Z" fill="white"/>
<path d="M69.6411 188.174C64.6594 197.788 66.4857 202.244 66.4857 202.244C66.4857 202.244 62.6322 204.303 62.5476 200.351C62.463 196.399 66.8277 188.583 66.8277 188.583L69.6446 188.174H69.6411Z" fill="white"/>
<path d="M79.2905 194.908C76.7063 198.944 76.5899 204.97 76.5899 204.97C76.5899 204.97 73.9634 205.46 73.5967 202.784C73.23 200.104 77.8979 194.305 77.8979 194.305L79.2905 194.911V194.908Z" fill="white"/>
<path d="M90.3081 200.572C88.8661 203.576 88.9895 204.7 88.9895 204.7C88.9895 204.7 87.3537 204.834 87.1421 203.742C86.9306 202.649 87.7979 199.412 87.7979 199.412L90.3081 200.572Z" fill="white"/>
<path d="M81.7127 152.082C53.5891 170.465 52.4397 193.942 55.6445 194.671C58.9867 195.433 61.6732 190.74 65.9357 185.329C70.1981 179.917 66.8276 188.583 66.8276 188.583C66.8276 188.583 59.2688 201.268 64.1799 202.417C69.0911 203.566 76.2057 193.427 76.2057 193.427L77.9015 194.301C77.9015 194.301 72.3734 201.254 73.8471 203.76C76.597 208.446 86.0773 198.525 86.0773 198.525L87.8049 199.417C87.8049 199.417 85.9962 203.154 87.6004 204.275C89.9167 205.897 93.608 202.41 93.608 202.41L121.732 146.875L81.7197 152.082H81.7127Z" stroke="black" stroke-width="1.2" stroke-linecap="round" stroke-linejoin="round"/>
<path d="M123.215 149.913C123.318 144.664 116.471 136.012 116.471 136.012C116.471 136.012 95.0777 142.227 79.0891 144.145C56.3985 146.871 58.2741 151.686 61.8808 153.654C65.4874 155.621 90.8575 156.873 90.8575 156.873" fill="#FF788F"/>
<path d="M62.988 154.074C64.5463 149.953 83.454 144.174 96.1602 141.128C108.866 138.082 73.5189 145.024 66.5418 146.448C59.5646 147.872 58.6621 151.479 60.5412 152.685C62.4204 153.891 62.988 154.074 62.988 154.074V154.074Z" fill="white"/>
<path d="M123.215 149.913C123.318 144.664 116.471 136.012 116.471 136.012C116.471 136.012 95.0777 142.227 79.0891 144.145C56.3985 146.871 58.2741 151.686 61.8808 153.654C65.4874 155.621 90.8575 156.873 90.8575 156.873" stroke="black" stroke-width="1.2" stroke-linecap="round" stroke-linejoin="round"/>
<path d="M302.583 147.136C311.03 142.411 331.267 129.688 331.267 129.688C331.267 129.688 334.754 144.005 332.205 147.848C329.656 151.691 320.158 152.153 320.158 152.153C320.158 152.153 320.158 170.553 320.853 175.368C321.547 180.181 317.687 205.354 317.687 205.354L302.58 147.136H302.583Z" fill="black" stroke="black" stroke-width="1.2" stroke-linecap="round" stroke-linejoin="round"/>
<path d="M286.186 222.339C286.186 222.339 304.381 214.896 309.169 212.845C313.957 210.793 316.298 207.979 317.687 205.353C319.076 202.726 320.931 177.864 313.671 163.966C306.412 150.068 302.58 147.135 302.58 147.135L270.896 163.243L286.182 222.342L286.186 222.339Z" fill="white" stroke="black" stroke-width="1.2" stroke-linecap="round" stroke-linejoin="round"/>
<path d="M180.866 242.568C174.845 246.739 176.692 254.552 187.075 251.062C195.667 248.174 219.803 233.92 223.73 231.914" fill="#FF788F"/>
<path d="M184.001 242.879C180.405 248.901 182.407 251.936 182.407 251.936C182.407 251.936 178.783 251.728 178.145 250.209C177.507 248.689 177.972 245.844 177.972 245.844L184.001 242.879V242.879Z" fill="white"/>
<path d="M180.866 242.568C174.845 246.739 176.692 254.552 187.075 251.062C195.667 248.174 219.803 233.92 223.73 231.914" stroke="black" stroke-width="1.2" stroke-linecap="round" stroke-linejoin="round"/>
<path d="M231.673 224.346C216.386 230.523 189.824 247.975 190.752 254.151C191.679 260.328 200.634 256.157 222.101 247.202C243.565 238.247 286.189 222.34 286.189 222.34C286.189 222.34 290.36 209.831 286.806 192.38C283.256 174.928 271.671 164.891 271.671 164.891" fill="#FF788F"/>
<path d="M219.277 230.418C198.163 247.048 195.966 256.959 195.966 256.959C195.966 256.959 189.003 258.475 190.727 252.918C192.451 247.358 201.938 241.326 206.285 238.453C210.632 235.579 219.277 230.421 219.277 230.421V230.418Z" fill="white"/>
<path d="M231.673 224.346C216.386 230.523 189.824 247.975 190.752 254.151C191.679 260.328 200.634 256.157 222.101 247.202C243.565 238.247 286.189 222.34 286.189 222.34C286.189 222.34 290.36 209.831 286.806 192.38C283.256 174.928 271.671 164.891 271.671 164.891" stroke="black" stroke-width="1.2" stroke-linecap="round" stroke-linejoin="round"/>
<path d="M294.143 71.1798L291.594 69.7731L291.488 70.5487L168.117 44.0328C166.277 43.6379 164.472 44.8261 164.109 46.6735L146.499 136.177C146.174 137.827 147.119 139.463 148.709 140.01L266.009 180.184C267.874 180.822 269.883 179.729 270.363 177.818L296.114 75.1038C296.526 73.4608 295.652 71.8109 294.143 71.1833V71.1798Z" fill="#FF788F" stroke="black" stroke-width="1.2" stroke-linecap="round" stroke-linejoin="round"/>
<path d="M293.371 73.6057L267.62 176.32C267.141 178.231 265.131 179.324 263.266 178.686L145.966 138.512C144.376 137.965 143.432 136.329 143.756 134.679L161.366 45.1754C161.729 43.328 163.534 42.1399 165.375 42.5348L290.815 69.4984C292.677 69.8968 293.833 71.7618 293.371 73.6057V73.6057Z" fill="black" stroke="black" stroke-width="1.2" stroke-linecap="round" stroke-linejoin="round"/>
<path d="M289.5 73.2241L263.89 175.367L147.609 135.352L165.16 46.1582L289.5 73.2241Z" fill="white"/>
<path d="M207.125 155.871L211.476 134.365C211.955 131.989 214.377 130.536 216.7 131.234L256.053 143.02C258.137 143.644 259.378 145.777 258.888 147.896L253.374 171.782L207.129 155.867L207.125 155.871Z" fill="#FF788F" stroke="#FF788F" stroke-width="1.2" stroke-linecap="round" stroke-linejoin="round"/>
<path d="M206.163 131.865L201.682 153.995L155.711 138.176L159.508 118.517C159.974 116.109 162.424 114.636 164.769 115.358L203.314 127.215C205.299 127.825 206.519 129.817 206.163 131.862V131.865Z" fill="#FF788F" stroke="#FF788F" stroke-width="1.2" stroke-linecap="round" stroke-linejoin="round"/>
<path d="M222.056 160.969C222.056 160.969 224.277 154.376 233.761 156.731C242.529 158.906 240.36 167.671 240.36 167.671L222.056 160.969V160.969Z" fill="white"/>
<path d="M233.281 154.979L232.506 156.882L235.488 157.827L236.134 155.761L233.281 154.979Z" fill="white"/>
<path d="M233.645 151.126L232.802 152.329L232.185 152.166C232.185 152.166 234.523 149.029 230.69 145.302C226.858 141.576 219.518 139.436 218.026 146.903C216.535 154.37 227.972 155.385 229.654 154.733C230.637 154.349 231.512 153.83 231.758 153.393L232.552 153.506C232.615 154.285 233.282 154.98 233.282 154.98L236.243 155.889C236.243 155.889 236.923 156.126 237.251 155.703C237.576 155.28 238.224 152.812 238.03 152.357C237.837 151.902 234.36 150.605 233.645 151.123V151.126Z" fill="white"/>
<path d="M164.54 141.214L166.623 131.135L195.173 139.988L192.906 150.977L164.54 141.214Z" fill="#FF788F" stroke="white" stroke-width="1.2" stroke-linecap="round" stroke-linejoin="round"/>
<path d="M177.447 134.492L175.324 144.928L182.337 147.339L184.586 136.706L177.447 134.492Z" fill="white"/>
<path d="M180.965 135.585C180.965 135.585 182.397 129.221 179.855 126.905C177.316 124.588 172.913 124.126 172.063 127.599C171.214 131.075 178.935 135.32 178.935 135.32L180.962 135.585H180.965Z" stroke="white" stroke-width="1.2" stroke-linecap="round" stroke-linejoin="round"/>
<path d="M180.965 135.585C181.177 135.243 182.488 127.688 189.825 130.463C197.162 133.237 184.586 136.706 184.586 136.706L180.969 135.585H180.965Z" stroke="white" stroke-width="1.2" stroke-linecap="round" stroke-linejoin="round"/>
<path d="M289.5 73.2241L263.89 175.367L147.609 135.352L165.16 46.1582L289.5 73.2241Z" stroke="black" stroke-width="1.2" stroke-linecap="round" stroke-linejoin="round"/>
<path d="M260.445 183.227L147.859 144.047C146.298 143.504 144.595 143.539 143.058 144.149L58.1933 177.804L53.8251 174.808C53.6523 176.969 53.5289 178.326 53.603 179.863C53.6347 180.508 53.8885 181.802 54.7347 182.204L179.114 246.433C181.472 247.653 184.325 247.403 186.44 245.795L263.597 187.115C264.087 186.742 264.295 186.188 264.26 185.656V179.948L260.438 183.227H260.445Z" fill="#FF788F" stroke="black" stroke-width="1.2" stroke-linecap="round" stroke-linejoin="round"/>
<path d="M147.86 138.31L263.129 178.425C264.408 178.869 264.676 180.561 263.598 181.383L186.44 240.062C184.325 241.67 181.476 241.917 179.114 240.7L54.7385 176.468C53.4446 175.798 53.5363 173.915 54.8901 173.379L143.058 138.413C144.595 137.803 146.298 137.768 147.86 138.31Z" fill="white" stroke="black" stroke-width="1.2" stroke-linecap="round" stroke-linejoin="round"/>
<path d="M183.26 241.465V247.127L185.456 246.415L255.376 193.365C255.376 193.365 264.041 187.097 264.151 186.374C264.26 185.651 264.151 180.648 264.151 180.648L187.198 239.36L183.26 241.461V241.465Z" fill="black"/>
<path d="M217.412 82.7185L211.658 108.258L164.539 95.7173L169.789 72.3533C170.282 70.1639 172.447 68.7819 174.64 69.2578L214.292 77.8321C216.513 78.3115 217.913 80.5045 217.416 82.722L217.412 82.7185Z" fill="#FF788F" stroke="#FF788F" stroke-width="1.2" stroke-linecap="round" stroke-linejoin="round"/>
<path d="M139.127 148.172L239.095 186.164C241.721 187.098 240.808 188.371 239.884 189.023L204.177 214.746C202.601 216.061 201.24 216.382 199.601 215.627L94.461 167.186C93.3787 166.685 93.4175 165.134 94.521 164.689L135.478 148.207C136.645 147.738 137.949 147.724 139.127 148.172V148.172Z" fill="#FF788F"/>
<path d="M211.659 108.259L210.178 114.83C209.656 117.129 207.312 118.515 205.048 117.859L166.038 106.535C163.965 105.932 162.713 103.82 163.185 101.715L164.529 95.7358L164.656 95.3516L211.655 108.259H211.659Z" fill="white" stroke="#FF788F" stroke-width="1.2" stroke-linecap="round" stroke-linejoin="round"/>
<path d="M147.271 144.286L248.518 180.959C249.608 181.238 250.19 182.133 249.319 182.676L245.842 184.83C244.866 185.44 244.298 185.468 243.124 185.017L142.987 147.142C141.961 146.754 141.919 145.319 142.92 144.871L144.556 144.138C145.43 143.747 146.012 143.796 147.274 144.282L147.271 144.286Z" fill="#FF788F"/>
<path d="M168.019 100.062L186.581 105.132" stroke="#FF788F" stroke-width="1.2" stroke-linecap="round" stroke-linejoin="round"/>
<path d="M167.243 102.984L175.761 105.361" stroke="#FF788F" stroke-width="1.2" stroke-linecap="round" stroke-linejoin="round"/>
<path d="M260.308 189.699C250.271 193.771 216.573 204.323 211.75 208.907C206.927 213.49 215.879 216.599 225.5 216.092C235.358 215.573 246.805 216.585 248.815 218.285" fill="#FF788F"/>
<path d="M213.785 214.645C214.017 207.957 250.891 193.164 250.891 193.164C250.891 193.164 217.821 204.82 212.413 208.366C207.005 211.913 213.785 214.645 213.785 214.645V214.645Z" fill="white"/>
<path d="M260.308 189.699C250.271 193.771 216.573 204.323 211.75 208.907C206.927 213.49 215.879 216.599 225.5 216.092C235.358 215.573 246.805 216.585 248.815 218.285" stroke="black" stroke-width="1.2" stroke-linecap="round" stroke-linejoin="round"/>
<path d="M287.561 196.818C287.561 196.818 286.686 180.367 300.006 174.941C316.759 168.119 318.61 183.671 318.61 183.671" stroke="black" stroke-width="1.2" stroke-linecap="round" stroke-linejoin="round"/>
<path d="M203.742 109.116L196.236 107.077C194.85 106.7 193.42 107.518 193.044 108.904C192.667 110.289 193.486 111.718 194.873 112.095L202.378 114.134C203.765 114.511 205.194 113.693 205.571 112.307C205.947 110.921 205.129 109.493 203.742 109.116Z" fill="#FF788F"/>
<path d="M304.783 196.818C308.232 196.818 311.027 194.022 311.027 190.574C311.027 187.126 308.232 184.33 304.783 184.33C301.335 184.33 298.54 187.126 298.54 190.574C298.54 194.022 301.335 196.818 304.783 196.818Z" fill="#FF788F"/>
<path d="M199.626 92.1113C198.79 95.2949 198.381 95.9648 197.528 99.9663C197.479 100.203 198.222 100.396 198.536 100.47C199.365 100.664 199.509 99.8535 199.636 99.4128C200.856 95.2984 202.83 91.0536 206.127 87.7889C208.009 85.9204 202.749 84.3515 198.896 81.3301C194.686 83.4454 194.013 84.5489 189.747 87.9864C188.39 89.0793 184.984 90.1123 182.914 90.1229C179.311 90.1405 176.519 90.5178 172.503 90.8562C171.005 90.9831 170.973 92.4004 172.496 92.9786C177.284 94.7908 182.132 96.5218 187.057 97.9779C189.56 98.7183 192.151 97.3362 193.28 96.0529C194.961 94.1491 195.469 93.659 197.39 91.928C198.385 91.036 199.22 91.0748 199.626 92.1113V92.1113Z" fill="white"/>
<path d="M271.862 93.7015L264.853 122.417L217.529 109.821L223.417 83.6149C223.9 81.4431 226.04 80.0611 228.218 80.5018L268.703 88.7269C270.98 89.1853 272.415 91.4487 271.862 93.698V93.7015Z" fill="#FF788F" stroke="#FF788F" stroke-width="1.2" stroke-linecap="round" stroke-linejoin="round"/>
<path d="M264.853 122.422L263.002 130.005C262.455 132.258 260.139 133.601 257.911 132.967L218.791 121.783C216.707 121.184 215.449 119.069 215.925 116.957L217.529 109.828L264.853 122.425V122.422Z" fill="white" stroke="#FF788F" stroke-width="1.2" stroke-linecap="round" stroke-linejoin="round"/>
<path d="M221.312 114.912L239.87 119.982" stroke="#FF788F" stroke-width="1.2" stroke-linecap="round" stroke-linejoin="round"/>
<path d="M220.532 117.834L229.05 120.21" stroke="#FF788F" stroke-width="1.2" stroke-linecap="round" stroke-linejoin="round"/>
<path d="M257.43 124.221L249.924 122.182C248.538 121.805 247.108 122.623 246.732 124.009C246.355 125.395 247.174 126.824 248.561 127.2L256.066 129.24C257.453 129.616 258.882 128.798 259.259 127.413C259.635 126.027 258.816 124.598 257.43 124.221Z" fill="#FF788F"/>
<path d="M244.27 112.316C250.894 112.316 256.264 106.946 256.264 100.322C256.264 93.698 250.894 88.3281 244.27 88.3281C237.646 88.3281 232.276 93.698 232.276 100.322C232.276 106.946 237.646 112.316 244.27 112.316Z" fill="white"/>
<path d="M246.851 88.6094L241.689 112.033" stroke="#FF788F" stroke-width="1.2" stroke-linecap="round" stroke-linejoin="round"/>
<path d="M249.033 89.0898C253.345 96.4442 248.3 110.839 243.872 112.517" stroke="#FF788F" stroke-width="1.2" stroke-linecap="round" stroke-linejoin="round"/>
<path d="M252.636 89.8867C256.948 97.2411 251.903 111.636 247.475 113.314" stroke="#FF788F" stroke-width="1.2" stroke-linecap="round" stroke-linejoin="round"/>
<path d="M244.566 88.1055C239.267 91.3631 234.98 107.905 239.405 111.533" stroke="#FF788F" stroke-width="1.2" stroke-linecap="round" stroke-linejoin="round"/>
<path d="M241.146 87.3516C235.847 90.6092 231.56 107.151 235.985 110.779" stroke="#FF788F" stroke-width="1.2" stroke-linecap="round" stroke-linejoin="round"/>
<path d="M234.472 89.0293C239.334 96.0311 254.515 97.5048 257.9 94.1907" stroke="#FF788F" stroke-width="1.2" stroke-linecap="round" stroke-linejoin="round"/>
<path d="M230.499 107.074C235.682 103.637 252.495 106.697 253.927 112.236" stroke="#FF788F" stroke-width="1.2" stroke-linecap="round" stroke-linejoin="round"/>
<path d="M232.554 97.7422L255.982 102.904" stroke="#FF788F" stroke-width="1.2" stroke-linecap="round" stroke-linejoin="round"/>
<path d="M163.016 42.0098L150.93 46.7517L125.292 56.8172C125.158 57.7585 125.158 58.6153 125.158 59.5531C125.158 68.9241 132.883 76.5147 142.642 76.5147C150.437 76.5147 157.058 71.8186 159.409 65.0918H159.43V67.8452C159.43 77.2162 167.349 84.8139 177.108 84.8139C184.903 84.8139 191.524 79.9697 193.875 73.2464H193.896V75.7954C193.896 85.1664 201.815 92.7641 211.574 92.7641C219.39 92.7641 225.69 88.0821 228.028 81.3271C228.028 82.2649 228.384 83.8866 228.525 84.8139C229.981 94.4951 236.281 100.831 246.04 100.831C253.856 100.831 260.534 96.3249 262.871 89.5699L294.21 70.3343L163.016 42.0098Z" fill="white"/>
<path d="M194.034 72.7867L228.133 80.8251C228.133 80.8251 222.623 94.9485 209.398 92.6393C196.174 90.33 194.178 78.8296 194.178 78.8296L194.034 72.7832V72.7867Z" fill="#FF788F"/>
<path d="M125.292 56.8203L159.409 64.6224C159.409 64.6224 155.312 77.4379 141.591 76.4895C127.869 75.5376 125.475 63.0888 125.356 62.1334C125.236 61.1779 125.292 56.8238 125.292 56.8238V56.8203Z" fill="#FF788F"/>
<path d="M159.409 64.6223L193.396 48.5703L225.436 55.4875L194.034 72.7875L159.409 64.6223Z" fill="#FF788F"/>
<path d="M228.13 80.8249L257.78 62.4707L294.21 70.3363L262.871 89.5719L228.13 80.8249Z" fill="#FF788F"/>
<path d="M163.016 42.0098L150.93 46.7517L125.292 56.8172C125.158 57.7585 125.158 58.6153 125.158 59.5531C125.158 68.9241 132.883 76.5147 142.642 76.5147C150.437 76.5147 157.058 71.8186 159.409 65.0918H159.43V67.8452C159.43 77.2162 167.349 84.8139 177.108 84.8139C184.903 84.8139 191.524 79.9697 193.875 73.2464H193.896V75.7954C193.896 85.1664 201.815 92.7641 211.574 92.7641C219.39 92.7641 225.69 88.0821 228.028 81.3271C228.028 82.2649 228.384 83.8866 228.525 84.8139C229.981 94.4951 236.281 100.831 246.04 100.831C253.856 100.831 260.534 96.3249 262.871 89.5699L294.21 70.3343L163.016 42.0098Z" stroke="black" stroke-width="1.2" stroke-linecap="round" stroke-linejoin="round"/>
<path d="M159.409 65.0957L193.875 73.2504C193.875 73.2504 188.88 86.3091 173.765 84.1656C159.395 82.1278 159.409 65.0957 159.409 65.0957V65.0957Z" fill="black" stroke="black" stroke-width="1.2" stroke-linecap="round" stroke-linejoin="round"/>
<path d="M228.028 81.3301L262.871 89.5729C262.871 89.5729 258.002 100.777 245.314 100.322C229.223 99.7442 228.028 81.3301 228.028 81.3301V81.3301Z" fill="black" stroke="black" stroke-width="1.2" stroke-linecap="round" stroke-linejoin="round"/>
<path d="M282.868 115.496L262.871 89.5723" stroke="black" stroke-width="1.2" stroke-linecap="round" stroke-linejoin="round"/>
<path d="M255.475 181.858C256.978 181.858 258.196 181.211 258.196 180.412C258.196 179.614 256.978 178.967 255.475 178.967C253.971 178.967 252.753 179.614 252.753 180.412C252.753 181.211 253.971 181.858 255.475 181.858Z" fill="#FF788F"/>
<path d="M107.368 195.259L123.635 186.551C124.573 186.05 125.694 186.018 126.657 186.473L152.168 198.478C152.993 198.865 153.074 200.004 152.312 200.505L136.803 210.733C135.781 211.406 134.476 211.473 133.394 210.905L107.382 197.314C106.554 196.881 106.547 195.696 107.372 195.252L107.368 195.259Z" fill="#FF788F"/>
</g>
<path d="M279.06 53.9185C254.734 29.5955 221.124 14.5483 183.997 14.5483V5.3465C183.997 3.48852 182.473 1.96194 180.616 2.00072C142.574 2.86097 108.087 18.1796 82.4386 42.6683C81.0953 43.9481 81.0953 46.0987 82.4068 47.4173L88.9186 53.9361C64.5921 78.2697 49.5484 111.879 49.5484 149.003H40.3431C38.4816 149.003 36.9586 150.526 37.0009 152.384C37.8611 190.426 53.1762 224.913 77.6649 250.561C78.9483 251.905 81.0989 251.905 82.4139 250.593L88.9362 244.085C113.27 268.411 146.879 283.459 183.997 283.459V292.66C183.997 294.518 185.523 296.041 187.381 295.999C225.426 295.142 259.909 279.824 285.558 255.339C286.905 254.055 286.901 251.905 285.59 250.59L279.078 244.067C303.405 219.734 318.448 186.128 318.448 149.007H327.657C329.515 149.007 331.042 147.48 330.999 145.622C330.139 107.581 314.824 73.0976 290.332 47.442C289.052 46.0987 286.901 46.0987 285.583 47.4138L279.06 53.922V53.9185Z" stroke="white" stroke-width="2" stroke-linecap="round" stroke-linejoin="round"/>
<path d="M283.626 116.479L279.529 111.166" stroke="#FF788F" stroke-width="1.2" stroke-linecap="round" stroke-linejoin="round"/>
</svg>
